<?xml version="1.0" encoding="UTF-8"?>
<!DOCTYPE svg PUBLIC "-//W3C//DTD SVG 1.1//EN" "http://www.w3.org/Graphics/SVG/1.1/DTD/svg11.dtd">
<svg xmlns="http://www.w3.org/2000/svg" xml:space="preserve" width="1024px" height="1024px" shape-rendering="geometricPrecision" text-rendering="geometricPrecision" image-rendering="optimizeQuality" fill-rule="nonzero" clip-rule="evenodd" viewBox="0 0 10240 10240" xmlns:xlink="http://www.w3.org/1999/xlink">
	<title>earth2 icon</title>
	<desc>earth2 icon from the IconExperience.com O-Collection. Copyright by INCORS GmbH (www.incors.com).</desc>
	<path id="curve0" fill="#4D82B8" d="M5120 640c2474,0 4480,2006 4480,4480 0,2474 -2006,4480 -4480,4480 -2474,0 -4480,-2006 -4480,-4480 0,-2474 2006,-4480 4480,-4480zm980 2861c107,-38 265,-45 323,-25 288,100 274,397 571,447 33,5 187,-89 222,-83 182,33 355,204 514,123 95,-48 145,-228 60,-292 -82,-63 -208,-17 -298,-80 -132,-94 -242,37 -352,-89 -50,-58 -138,-236 -204,-330 -69,-101 -280,-60 -246,-14 109,146 267,169 288,249 22,87 -204,204 -144,45 32,-84 -130,-136 -318,-235 -99,-51 -195,-184 -344,-113 -73,35 -212,210 -267,292 -95,142 -310,104 -454,33 -142,-69 -146,-414 40,-564 177,-144 323,-57 495,-105 70,-20 106,-96 211,-167 125,-85 -77,-217 -10,-353 55,-111 238,-133 335,-181 91,-45 193,-120 293,-61 137,81 285,89 420,173 194,121 339,190 528,163 -637,-604 -1481,-992 -2415,-1047 131,93 363,360 299,501 -61,139 -152,312 -421,412 -200,74 -462,77 -662,164 -207,90 -413,83 -532,111 -188,44 8,-615 -46,-689 -81,-109 -579,-15 -622,97 -100,264 134,487 123,539 -20,100 -18,497 -113,600 -144,156 -511,297 -560,304 -238,33 -293,277 -471,418 -75,60 -452,457 -512,580 -164,334 -4,547 70,614 128,115 181,127 324,172 56,17 595,295 742,446 149,153 223,313 373,403 182,110 513,235 557,320 199,386 132,927 -438,1310 -147,100 -449,263 -374,538 31,110 26,205 66,290 576,345 1249,543 1969,543 2121,0 3840,-1719 3840,-3840 0,-182 -13,-361 -38,-537 -56,-79 -118,-146 -163,-132 -64,21 -69,225 -139,343 -57,95 -185,106 -205,134 -138,187 321,338 122,597 -86,111 -346,362 -415,686 -148,690 -51,274 -273,825 -33,83 -92,401 -139,472 -212,322 -810,689 -956,504 -85,-107 -136,-270 -163,-425 -27,-154 -189,-352 -172,-475 25,-191 40,-252 44,-471 0,-10 -131,-540 -153,-586 -98,-209 -259,-303 -485,-225 -176,61 -324,-28 -464,-84 -279,-113 -409,-477 -468,-775 0,-2 43,-469 45,-493 9,-124 66,-240 132,-335 501,-718 384,-410 1030,-642zm-3192 4758c-215,-251 -449,-556 -521,-732 -80,-197 -102,-555 -197,-664 -197,-227 -378,-410 -415,-642 -34,-211 -155,-518 -177,-684 -30,-233 -135,-489 -309,-673 -6,84 -9,170 -9,256 0,1297 643,2444 1628,3139z"/>
</svg>
